<svg width="24" height="24" viewBox="0 0 24 24" fill="none" xmlns="http://www.w3.org/2000/svg">
<path fill-rule="evenodd" clip-rule="evenodd" d="M5.07 8.00043C5.77207 6.7838 6.7822 5.77357 7.99875 5.07137C9.2153 4.36918 10.5953 3.99981 12 4.00043C13.4047 3.99981 14.7847 4.36918 16.0013 5.07137C17.2178 5.77357 18.2279 6.7838 18.93 8.00043H5.07ZM4.159 10.4064C3.92429 11.5679 3.95054 12.767 4.23584 13.9171C4.52114 15.0672 5.05837 16.1396 5.80871 17.0567C6.55905 17.9739 7.50375 18.7129 8.57456 19.2203C9.64537 19.7278 10.8155 19.991 12.0005 19.991C13.1855 19.991 14.3556 19.7278 15.4264 19.2203C16.4972 18.7129 17.442 17.9739 18.1923 17.0567C18.9426 16.1396 19.4799 15.0672 19.7652 13.9171C20.0505 12.767 20.0767 11.5679 19.842 10.4064C19.412 12.2934 18.121 14.0004 16 14.0004C13.732 14.0004 12.41 12.0334 12.09 10.0004H11.91C11.59 12.0334 10.268 14.0004 8 14.0004C5.877 14.0004 4.587 12.2924 4.159 10.4064ZM12 2.00043C6.477 2.00043 2 6.47743 2 12.0004C2 17.5234 6.477 22.0004 12 22.0004C17.523 22.0004 22 17.5234 22 12.0004C22 6.47743 17.523 2.00043 12 2.00043ZM8.757 15.0304C9.01205 14.9664 9.28204 15.0055 9.50851 15.1391C9.73498 15.2728 9.8997 15.4902 9.967 15.7444C10.227 16.6144 11.16 17.0004 12 17.0004C12.84 17.0004 13.772 16.6154 14.033 15.7444C14.1035 15.4928 14.2697 15.2787 14.496 15.1481C14.7224 15.0175 14.9908 14.9806 15.244 15.0454C15.4972 15.1103 15.7149 15.2716 15.8506 15.4949C15.9863 15.7183 16.0291 15.9859 15.97 16.2404C15.452 17.9884 13.785 19.0004 12 19.0004C10.283 19.0004 8.469 17.9994 8.03 16.2424C7.96586 15.9853 8.0064 15.7132 8.14271 15.486C8.27902 15.2587 8.49996 15.0949 8.757 15.0304Z" fill="#ccc"/>
</svg>
